<svg id="Layer_1" data-name="Layer 1" xmlns="http://www.w3.org/2000/svg" viewBox="0 0 66 66"><defs><style>.cls-1{fill:#8fc340;}.cls-2{fill:#fff;}</style></defs><path class="cls-1" d="M62.59,32.84,33.45,7.25a1,1,0,0,0-1.32,0L3,32.84a1,1,0,0,0,1.32,1.5l5.72-5V55.71A3.26,3.26,0,0,0,13.32,59H52.15a3.26,3.26,0,0,0,3.31-3.29V29.24l5.81,5.1a1,1,0,0,0,.66.25,1,1,0,0,0,.75-.34A1,1,0,0,0,62.59,32.84Z"/><path class="cls-2" d="M34.12,35.13v-5a6.69,6.69,0,0,1,2.57,1.19,1,1,0,0,0,.6.2,1,1,0,0,0,1-1,1.1,1.1,0,0,0-.52-.89,7.91,7.91,0,0,0-3.62-1.42V26.62a.9.9,0,0,0-1.8,0v1.54c-2.72.21-4.6,1.93-4.6,4.24s1.36,3.62,4.67,4.43v5.11a6.87,6.87,0,0,1-3.56-1.72,1,1,0,0,0-.62-.22,1,1,0,0,0-1,1,1,1,0,0,0,.44.86,9,9,0,0,0,4.68,2v1.42a.9.9,0,0,0,1.8,0V43.87c2.8-.25,4.67-2,4.67-4.33S37.39,35.9,34.12,35.13Zm2.64,4.52c0,1.29-1,2.21-2.64,2.37v-4.8C36.32,37.83,36.76,38.58,36.76,39.65ZM32.45,30v4.69c-2.15-.61-2.58-1.36-2.58-2.43C29.87,31.06,30.9,30.17,32.45,30Z"/></svg>