<svg width="122" height="28" viewBox="0 0 122 28" fill="none" xmlns="http://www.w3.org/2000/svg">
<path fill-rule="evenodd" clip-rule="evenodd" d="M2.80566 22.0288L10.0725 12.2186L14.4956 22.0288H2.80566ZM10.3408 11.8992L13.9856 6.92707L15.8405 22.0335L10.3408 11.8992ZM16.9745 2.83398L19.744 6.55639L16.9745 22.0331L14.2237 6.54533L16.9745 2.83398ZM18.1781 22.0335L19.9866 6.90429L23.6681 11.866L18.1781 22.0335ZM19.5443 22.0335L23.9003 12.194L31.1974 22.0335H19.5443Z" fill="#558800"/>
<path fill-rule="evenodd" clip-rule="evenodd" d="M41.2209 14.7315C43.8929 14.9203 45.1212 14.0956 45.1212 11.8071C45.1212 10.0386 44.1098 9.07208 42.1838 9.07208H41.2209V14.7315ZM38.1151 10.5808C38.1151 9.42746 37.8505 8.97965 36.3318 8.69522V8.29297H43.0281C46.9277 8.29297 48.4935 9.8271 48.4935 11.7602C48.4935 13.1733 47.6751 14.4718 45.6523 15.0355V15.0843C47.2162 15.4384 48.7329 19.8462 50.0109 21.0952C50.371 21.4513 50.6834 21.5912 51.2862 21.6856V22.0872H47.2162C45.6749 20.294 44.6648 17.2055 43.5812 16.1439C42.9551 15.5321 42.473 15.5093 41.2209 15.5093V19.7531C41.2209 20.9787 41.7282 21.4981 43.0281 21.6856V22.0872H36.3318V21.6856C37.4903 21.5912 38.1151 21.0256 38.1151 19.9184V10.5808Z" fill="#558800"/>
<path fill-rule="evenodd" clip-rule="evenodd" d="M60.5121 18.4036H60.1584C60.0273 17.4748 59.542 17.0374 58.65 17.0374H56.7312V20.172C56.7312 21.1386 57.1397 21.4836 58.2221 21.4836H58.8546C60.1952 21.4836 60.7922 20.5196 61.1446 19.4977H61.4608L61.2569 22.0869H52.9509V21.7758C54.1617 21.5226 54.3296 21.1562 54.3296 20.0646V13.2069C54.3296 12.2774 54.1037 11.9481 52.9509 11.7294V11.4202H61.1265V13.7881H60.8096C60.4553 12.4226 60.0454 12.021 58.8372 12.021H56.7312V16.434H58.65C59.5246 16.434 59.935 16.0701 60.1584 15.1029H60.5121V18.4036Z" fill="#558800"/>
<path fill-rule="evenodd" clip-rule="evenodd" d="M73.6971 21.5951C72.6561 22.0871 71.109 22.3605 69.4703 22.3605C65.5396 22.3605 63.5479 19.5715 63.5479 16.8358C63.5479 13.5723 66.0611 11.1477 69.4703 11.1477C71.1271 11.1477 71.8732 11.7849 72.5805 11.7849C72.8774 11.7849 73.0827 11.6925 73.3628 11.4204H73.6971V14.4099H73.3628C72.7103 12.7873 71.2581 11.7485 69.6181 11.7485C67.3842 11.7485 66.1534 13.718 66.1534 17.0187C66.1534 20.4267 67.6463 21.7591 69.6555 21.7591C70.643 21.7591 71.2955 21.502 71.2955 20.6278V19.0423C71.2955 18.3497 71.016 17.8935 70.1789 17.7282V17.4177H74.7595V17.7282C73.9566 17.9475 73.6971 18.3497 73.6971 19.3345V21.5951Z" fill="#558800"/>
<path fill-rule="evenodd" clip-rule="evenodd" d="M80.6986 20.2806C80.6986 21.2303 80.9432 21.5023 82.0778 21.7757V22.0868H76.9209V21.7757C78.2608 21.4477 78.2956 21.0832 78.2956 20.0457V13.2263C78.2956 12.278 78.0549 12.004 76.9209 11.7293V11.4208H82.0778V11.7293C80.7734 12.0215 80.6986 12.4225 80.6986 13.4437V20.2806Z" fill="#558800"/>
<path fill-rule="evenodd" clip-rule="evenodd" d="M90.4953 11.7486C88.3545 11.7486 87.1804 13.4799 87.1804 16.8535C87.1804 19.4264 88.0369 21.7592 90.4953 21.7592C92.3206 21.7592 93.8283 20.3559 93.8283 16.8353C93.8283 13.8444 92.8808 11.7486 90.4953 11.7486ZM90.4953 22.3606C87.052 22.3606 84.5742 20.0265 84.5742 16.7643C84.5742 13.4995 87.052 11.1478 90.4953 11.1478C93.96 11.1478 96.4371 13.4995 96.4371 16.7643C96.4371 20.0265 93.96 22.3606 90.4953 22.3606Z" fill="#558800"/>
<path fill-rule="evenodd" clip-rule="evenodd" d="M108.712 22.2154H108.356L100.513 13.5528V20.0798C100.513 21.2495 100.869 21.5775 102.115 21.7754V22.0872H98.3548V21.7754C99.5288 21.5951 99.8051 20.9748 99.7889 19.9347V12.7873C98.9518 11.9483 98.7827 11.8214 98.3354 11.729V11.4205H101.613L107.985 18.5678V13.7708C107.985 12.4775 107.761 11.9848 106.603 11.729V11.4205H110.291V11.729C109.046 11.8032 108.712 12.5328 108.712 13.4799V22.2154Z" fill="#558800"/>
<path fill-rule="evenodd" clip-rule="evenodd" d="M118.56 13.9548H118.245C117.834 12.7136 116.663 11.7483 115.542 11.7483C114.558 11.7483 113.756 12.3855 113.756 13.1887C113.756 13.5896 113.962 13.9919 114.296 14.3199C114.837 14.8472 117.333 16.1411 118.003 16.7985C118.824 17.601 119.194 18.3307 119.194 19.2602C119.194 21.6124 117.034 22.3603 115.693 22.3603C114.388 22.3603 113.589 21.9405 113.029 21.9405C112.788 21.9405 112.582 22.0674 112.472 22.2881H112.154V19.0792H112.472C112.788 20.6661 113.831 21.7589 115.395 21.7589C116.565 21.7589 117.406 21.121 117.406 20.2462C117.406 19.8993 117.258 19.4261 116.847 19.0245C116.008 18.2018 114.091 17.4175 113.179 16.5245C112.526 15.8873 112.211 15.1029 112.211 14.264C112.211 12.4226 113.624 11.1475 115.637 11.1475C116.05 11.1475 116.419 11.2204 116.752 11.292C117.091 11.3669 117.406 11.4391 117.686 11.4391C117.853 11.4391 118.038 11.3473 118.245 11.1475H118.56V13.9548Z" fill="#558800"/>
</svg>
