<svg width="174" height="40" viewBox="0 0 174 40" fill="none" xmlns="http://www.w3.org/2000/svg">
<path fill-rule="evenodd" clip-rule="evenodd" d="M4 31.367L14.3607 17.3802L20.6669 31.367H4ZM14.7433 16.9247L19.9397 9.83573L22.5844 31.3737L14.7433 16.9247ZM24.2012 4L28.1499 9.30723L24.2012 31.3732L20.2793 9.29146L24.2012 4ZM25.9173 31.3737L28.4957 9.80325L33.7446 16.8774L25.9173 31.3737ZM27.8652 31.3737L34.0757 17.3451L44.4796 31.3737H27.8652Z" fill="white"/>
<path fill-rule="evenodd" clip-rule="evenodd" d="M58.7709 20.9629C62.5806 21.232 64.3317 20.0563 64.3317 16.7934C64.3317 14.272 62.8898 12.894 60.1439 12.894H58.7709V20.9629ZM54.3428 15.0451C54.3428 13.4006 53.9656 12.7622 51.8003 12.3566V11.7831H61.3475C66.9074 11.7831 69.1399 13.9704 69.1399 16.7266C69.1399 18.7413 67.973 20.5926 65.0891 21.3963V21.4659C67.3188 21.9707 69.4813 28.2551 71.3033 30.036C71.8168 30.5436 72.2621 30.7431 73.1216 30.8777V31.4502H67.3188C65.1213 28.8936 63.6812 24.4902 62.1361 22.9767C61.2435 22.1044 60.5561 22.0719 58.7709 22.0719V28.1224C58.7709 29.8699 59.4942 30.6104 61.3475 30.8777V31.4502H51.8003V30.8777C53.4521 30.7431 54.3428 29.9367 54.3428 28.3582V15.0451Z" fill="white"/>
<path fill-rule="evenodd" clip-rule="evenodd" d="M86.2754 26.1983H85.7711C85.5843 24.8741 84.8923 24.2505 83.6206 24.2505H80.8848V28.7197C80.8848 30.0978 81.4673 30.5896 83.0105 30.5896H83.9123C85.8236 30.5896 86.6748 29.2153 87.1772 27.7583H87.6281L87.3373 31.4499H75.4951V31.0063C77.2214 30.6453 77.4607 30.1228 77.4607 28.5666V18.7892C77.4607 17.464 77.1386 16.9944 75.4951 16.6826V16.2418H87.1515V19.6179H86.6996C86.1944 17.6709 85.6101 17.0984 83.8875 17.0984H80.8848V23.3902H83.6206C84.8675 23.3902 85.4527 22.8715 85.7711 21.4924H86.2754V26.1983Z" fill="white"/>
<path fill-rule="evenodd" clip-rule="evenodd" d="M105.074 30.7486C103.59 31.4502 101.384 31.8399 99.0474 31.8399C93.4433 31.8399 90.6035 27.8634 90.6035 23.9631C90.6035 19.3101 94.1868 15.8533 99.0474 15.8533C101.41 15.8533 102.473 16.7618 103.482 16.7618C103.905 16.7618 104.198 16.63 104.597 16.2421H105.074V20.5044H104.597C103.667 18.1909 101.596 16.7098 99.2581 16.7098C96.0733 16.7098 94.3184 19.5179 94.3184 24.2238C94.3184 29.0828 96.4469 30.9825 99.3115 30.9825C100.719 30.9825 101.65 30.6159 101.65 29.3696V27.109C101.65 26.1216 101.251 25.4711 100.058 25.2354V24.7927H106.589V25.2354C105.444 25.5481 105.074 26.1216 105.074 27.5257V30.7486Z" fill="white"/>
<path fill-rule="evenodd" clip-rule="evenodd" d="M115.056 28.8745C115.056 30.2284 115.405 30.6163 117.023 31.0061V31.4497H109.67V31.0061C111.581 30.5384 111.63 30.0187 111.63 28.5395V18.8168C111.63 17.4647 111.287 17.074 109.67 16.6824V16.2426H117.023V16.6824C115.163 17.0991 115.056 17.6707 115.056 19.1268V28.8745Z" fill="white"/>
<path fill-rule="evenodd" clip-rule="evenodd" d="M129.024 16.7099C125.972 16.7099 124.298 19.1784 124.298 23.9882C124.298 27.6566 125.519 30.9825 129.024 30.9825C131.626 30.9825 133.776 28.9818 133.776 23.9622C133.776 19.6981 132.425 16.7099 129.024 16.7099ZM129.024 31.84C124.115 31.84 120.582 28.5122 120.582 23.8611C120.582 19.2062 124.115 15.8534 129.024 15.8534C133.964 15.8534 137.496 19.2062 137.496 23.8611C137.496 28.5122 133.964 31.84 129.024 31.84Z" fill="white"/>
<path fill-rule="evenodd" clip-rule="evenodd" d="M154.996 31.6331H154.488L143.307 19.2823V28.5883C143.307 30.2559 143.814 30.7236 145.591 31.0057V31.4503H140.23V31.0057C141.904 30.7487 142.297 29.8643 142.274 28.3814V18.191C141.081 16.9948 140.84 16.8138 140.202 16.6821V16.2422H144.875L153.96 26.4326V19.5932C153.96 17.7493 153.64 17.0468 151.99 16.6821V16.2422H157.247V16.6821C155.472 16.7879 154.996 17.8281 154.996 19.1784V31.6331Z" fill="white"/>
<path fill-rule="evenodd" clip-rule="evenodd" d="M169.038 19.8554H168.589C168.003 18.0857 166.333 16.7095 164.735 16.7095C163.332 16.7095 162.189 17.618 162.189 18.7632C162.189 19.3348 162.481 19.9083 162.958 20.376C163.73 21.1277 167.288 22.9726 168.244 23.9099C169.413 25.0541 169.941 26.0944 169.941 27.4196C169.941 30.7734 166.862 31.8396 164.949 31.8396C163.089 31.8396 161.949 31.2411 161.152 31.2411C160.808 31.2411 160.515 31.422 160.357 31.7366H159.904V27.1616H160.357C160.808 29.424 162.295 30.9822 164.525 30.9822C166.193 30.9822 167.392 30.0727 167.392 28.8255C167.392 28.3309 167.181 27.6562 166.596 27.0836C165.399 25.9106 162.666 24.7924 161.366 23.5192C160.435 22.6107 159.985 21.4924 159.985 20.2962C159.985 17.6709 162 15.853 164.87 15.853C165.458 15.853 165.985 15.9569 166.46 16.059C166.943 16.1657 167.392 16.2687 167.791 16.2687C168.029 16.2687 168.293 16.1379 168.589 15.853H169.038V19.8554Z" fill="white"/>
</svg>
