<svg id="Layer_1" data-name="Layer 1" xmlns="http://www.w3.org/2000/svg" viewBox="0 0 66 66"><defs><style>.cls-1{fill:#8fc340;}.cls-2{fill:#fff;}.cls-3{fill:#417514;}</style></defs><path class="cls-1" d="M29.73,15.82a18.6,18.6,0,0,0-15.47,18.3v6.79c0,.11.09,10.74-3.72,14.56a.86.86,0,0,0-.19,1,.88.88,0,0,0,.81.55h.51l-.12.31L24.42,57H46.26l8.65.31-.15-.35a.89.89,0,0,0,.58-.51.88.88,0,0,0-.2-1C51.33,51.65,51.42,41,51.42,40.9V34.12A18.59,18.59,0,0,0,36,15.83"/><path class="cls-2" d="M32.84,23.78a1,1,0,0,1,1,1v1a10.56,10.56,0,0,1,5.05,1.91,1.22,1.22,0,0,1,.6,1,1.09,1.09,0,0,1-1.14,1.08,1,1,0,0,1-.66-.21,8.92,8.92,0,0,0-3.94-1.74v7.38c4.54,1,6.45,2.78,6.45,5.8,0,3.2-2.63,5.41-6.36,5.65V48.7a1,1,0,0,1-1.91,0V46.52a12,12,0,0,1-6.49-2.66,1.13,1.13,0,0,1-.5-1A1.08,1.08,0,0,1,26,41.83a1.18,1.18,0,0,1,.69.23A9.53,9.53,0,0,0,32,44.51V37c-4.42-1.05-6.37-2.69-6.37-5.83s2.6-5.35,6.28-5.53v-.92A1,1,0,0,1,32.84,23.78ZM32,34.71v-7c-2.54.12-4.07,1.56-4.07,3.38S28.72,33.85,32,34.71Zm1.73,2.69v7.2c2.57-.15,4.15-1.55,4.15-3.52C37.86,39.32,37,38.24,33.71,37.4Z"/><polygon class="cls-3" points="23.99 8.82 41.82 8.82 36.01 15.83 29.73 15.83 23.99 8.82"/></svg>