<svg id="Layer_1" data-name="Layer 1" xmlns="http://www.w3.org/2000/svg" viewBox="0 0 66 66"><defs><style>.cls-1{fill:#8fc340;}.cls-2{fill:#417514;}.cls-3{fill:#fff;}</style></defs><rect class="cls-1" x="12.35" y="12.01" width="51.65" height="31.01" rx="3.08"/><rect class="cls-2" x="7.28" y="17.74" width="51.65" height="31.01" rx="3.08"/><rect class="cls-1" x="1.51" y="23.23" width="51.65" height="31.01" rx="3.08"/><path class="cls-3" d="M44.79,39.9V35.51a4.76,4.76,0,0,1,2.05,1,.73.73,0,0,0,.58.21,1,1,0,0,0,1-1,1,1,0,0,0-.52-.88,7.2,7.2,0,0,0-3.1-1.29v-.45a.87.87,0,0,0-.86-.92.88.88,0,0,0-.85.79v.37a4,4,0,0,0-4,3.92c0,2.15,1.21,3.38,4,4.09v4.55a5.73,5.73,0,0,1-2.93-1.5.82.82,0,0,0-.58-.21,1,1,0,0,0-.5,1.85,7.2,7.2,0,0,0,4,1.85v1.25a.87.87,0,0,0,.85.92.91.91,0,0,0,.85-.92V48c2.42-.23,4-1.81,4-4S47.61,40.6,44.79,39.9Zm2.05,4.16a2.14,2.14,0,0,1-2.12,2.08V41.91C46.5,42.48,46.84,43.09,46.84,44.06ZM41.1,37.35a2.07,2.07,0,0,1,2-2v4.1C41.38,38.92,41,38.25,41.1,37.35Z"/></svg>