<svg id="Layer_1" data-name="Layer 1" xmlns="http://www.w3.org/2000/svg" viewBox="0 0 66 66"><defs><style>.cls-1{fill:#417514;}.cls-1,.cls-2{fill-rule:evenodd;}.cls-2{fill:#8fc340;}.cls-3{fill:#fff;}</style></defs><path id="Shape" class="cls-1" d="M15.51,47.89,4.56,29.3a2.11,2.11,0,0,1,.74-2.94L41.09,5.29A2.11,2.11,0,0,1,44,6L55.26,25.16"/><path id="Shape-2" data-name="Shape" class="cls-2" d="M59.12,57.64H17.72a2.24,2.24,0,0,1-2.21-2.21V27.19A2.24,2.24,0,0,1,17.72,25h41.4a2.24,2.24,0,0,1,2.21,2.21V55.53A2.22,2.22,0,0,1,59.12,57.64Z"/><path class="cls-3" d="M39.38,39.91v-4.4a4.91,4.91,0,0,1,2.06,1,.73.73,0,0,0,.58.21,1,1,0,0,0,1-1,1,1,0,0,0-.52-.88,7.18,7.18,0,0,0-3.11-1.28v-.45a.86.86,0,0,0-.85-.92.88.88,0,0,0-.85.78v.37c-2.35.24-4,1.82-4,3.93s1.2,3.37,4,4.08v4.55a5.62,5.62,0,0,1-2.92-1.5.84.84,0,0,0-.58-.21,1,1,0,0,0-.92,1,1,1,0,0,0,.42.86,7.14,7.14,0,0,0,4,1.85v1.25a.87.87,0,0,0,.86.92.91.91,0,0,0,.85-.92V48c2.42-.23,4-1.81,4-4S42.21,40.61,39.38,39.91Zm2,4.15a2.14,2.14,0,0,1-2.11,2.08V41.92C41.1,42.49,41.43,43.1,41.43,44.06Zm-5.74-6.71a2.08,2.08,0,0,1,2.05-2v4.1C36,38.92,35.64,38.26,35.69,37.35Z"/></svg>