<svg width="16" height="17" viewBox="0 0 16 17" fill="none" xmlns="http://www.w3.org/2000/svg">
<path d="M6.33333 9.66667C6.33333 10.3133 6.83334 10.8333 7.44667 10.8333H8.69999C9.23332 10.8333 9.66666 10.38 9.66666 9.81333C9.66666 9.20667 9.4 8.98667 9.00667 8.84667L6.99999 8.14667C6.60666 8.00667 6.34 7.79334 6.34 7.18C6.34 6.62 6.77332 6.16 7.30666 6.16H8.55999C9.17333 6.16 9.67333 6.68 9.67333 7.32667" stroke="#F9F9F9" stroke-linecap="round" stroke-linejoin="round"/>
<path d="M8 5.5V11.5" stroke="#F9F9F9" stroke-linecap="round" stroke-linejoin="round"/>
<path d="M14.6667 8.5C14.6667 12.18 11.68 15.1667 8 15.1667C4.32 15.1667 1.33333 12.18 1.33333 8.5C1.33333 4.82 4.32 1.83333 8 1.83333" stroke="#F9F9F9" stroke-linecap="round" stroke-linejoin="round"/>
<path d="M14.6667 4.49999V1.83333H12" stroke="#F9F9F9" stroke-linecap="round" stroke-linejoin="round"/>
<path d="M11.3333 5.16666L14.6667 1.83333" stroke="#F9F9F9" stroke-linecap="round" stroke-linejoin="round"/>
</svg>
