<svg width="52" height="53" viewBox="0 0 52 53" fill="none" xmlns="http://www.w3.org/2000/svg">
<rect y="0.5" width="52" height="52" rx="26" fill="#DADEE8"/>
<path d="M22.6665 28.8333C22.6665 30.1266 23.6665 31.1666 24.8932 31.1666H27.3998C28.4665 31.1666 29.3332 30.26 29.3332 29.1266C29.3332 27.9133 28.7999 27.4733 28.0132 27.1933L23.9998 25.7933C23.2132 25.5133 22.6799 25.0867 22.6799 23.86C22.6799 22.74 23.5465 21.82 24.6132 21.82H27.1198C28.3465 21.82 29.3465 22.86 29.3465 24.1533" stroke="#16302B" stroke-width="1.5" stroke-linecap="round" stroke-linejoin="round"/>
<path d="M25.9999 20.5V32.5" stroke="#16302B" stroke-width="1.5" stroke-linecap="round" stroke-linejoin="round"/>
<path d="M39.3333 26.5C39.3333 33.86 33.36 39.8333 26 39.8333C18.64 39.8333 12.6666 33.86 12.6666 26.5C12.6666 19.14 18.64 13.1667 26 13.1667" stroke="#16302B" stroke-width="1.5" stroke-linecap="round" stroke-linejoin="round"/>
<path d="M39 19V13H33" stroke="#88BB00" stroke-width="2" stroke-linecap="round" stroke-linejoin="round"/>
<path d="M32 21L39 13" stroke="#88BB00" stroke-width="2" stroke-linecap="round" stroke-linejoin="round"/>
</svg>
