<svg width="52" height="53" viewBox="0 0 52 53" fill="none" xmlns="http://www.w3.org/2000/svg">
<rect y="0.5" width="52" height="52" rx="26" fill="#D7DBE6"/>
<path d="M39.3333 18.5V21.7267C39.3333 23.8333 38 25.1667 35.8933 25.1667H31.3333V15.8467C31.3333 14.3667 32.5466 13.1667 34.0266 13.1667C35.48 13.18 36.8133 13.7667 37.7733 14.7267C38.7333 15.7 39.3333 17.0333 39.3333 18.5Z" stroke="#16302B" stroke-width="2" stroke-miterlimit="10" stroke-linecap="round" stroke-linejoin="round"/>
<path d="M12.6667 19.8333V38.5C12.6667 39.6067 13.92 40.2333 14.8 39.5667L17.08 37.86C17.6134 37.46 18.36 37.5133 18.84 37.9933L21.0534 40.22C21.5734 40.74 22.4267 40.74 22.9467 40.22L25.1867 37.98C25.6534 37.5133 26.4 37.46 26.92 37.86L29.2 39.5667C30.08 40.22 31.3334 39.5933 31.3334 38.5V15.8333C31.3334 14.3667 32.5334 13.1667 34 13.1667H19.3334H18C14 13.1667 12.6667 15.5533 12.6667 18.5V19.8333Z" stroke="#16302B" stroke-width="2" stroke-miterlimit="10" stroke-linecap="round" stroke-linejoin="round"/>
<path d="M22 27.8467H26" stroke="#88BB00" stroke-width="1.8" stroke-linecap="round" stroke-linejoin="round"/>
<path d="M22 22.5133H26" stroke="#88BB00" stroke-width="1.8" stroke-linecap="round" stroke-linejoin="round"/>
<path d="M17.9941 27.8333H18.0061" stroke="#88BB00" stroke-width="2.5" stroke-linecap="round" stroke-linejoin="round"/>
<path d="M17.9941 22.5H18.0061" stroke="#88BB00" stroke-width="2.5" stroke-linecap="round" stroke-linejoin="round"/>
</svg>
