<svg width="24" height="25" viewBox="0 0 24 25" fill="none" xmlns="http://www.w3.org/2000/svg">
<path d="M12.0201 3.83002C8.71009 3.83002 6.02009 6.52002 6.02009 9.83002V12.72C6.02009 13.33 5.76009 14.26 5.45009 14.78L4.30009 16.69C3.59009 17.87 4.08009 19.18 5.38009 19.62C9.69009 21.06 14.3401 21.06 18.6501 19.62C19.8601 19.22 20.3901 17.79 19.7301 16.69L18.5801 14.78C18.2801 14.26 18.0201 13.33 18.0201 12.72V9.83002C18.0201 6.53002 15.3201 3.83002 12.0201 3.83002Z" stroke="#F9F9F9" stroke-width="1.5" stroke-miterlimit="10" stroke-linecap="round"/>
<path d="M13.8699 4.12002C13.5599 4.03002 13.2399 3.96002 12.9099 3.92002C11.9499 3.80002 11.0299 3.87002 10.1699 4.12002C10.4599 3.38002 11.1799 2.86002 12.0199 2.86002C12.8599 2.86002 13.5799 3.38002 13.8699 4.12002Z" stroke="#F9F9F9" stroke-width="1.5" stroke-miterlimit="10" stroke-linecap="round" stroke-linejoin="round"/>
<path d="M15.02 19.98C15.02 21.63 13.67 22.98 12.02 22.98C11.2 22.98 10.44 22.64 9.90002 22.1C9.36002 21.56 9.02002 20.8 9.02002 19.98" stroke="#F9F9F9" stroke-width="1.5" stroke-miterlimit="10"/>
</svg>
