<svg id="Layer_1" data-name="Layer 1" xmlns="http://www.w3.org/2000/svg" viewBox="0 0 66 66"><defs><style>.cls-1{fill:#417514;}.cls-2{fill:#8fc340;}.cls-3{fill:#fff;}</style></defs><ellipse class="cls-1" cx="33" cy="15.27" rx="8.35" ry="9.06"/><path class="cls-2" d="M58.5,28.16h0a3,3,0,0,0-1,.19,19.24,19.24,0,0,0-3.87-6.11l.39-8a1,1,0,0,0-1.48-.95l-6.71,3.45a27.18,27.18,0,0,0-10.94-2.25c-13.14,0-23.79,9-23.79,20.11,0,.11,0,.22,0,.34A5.29,5.29,0,0,1,7.6,26a1,1,0,0,0-1.44-1.39A7.3,7.3,0,0,0,11.27,37,19.11,19.11,0,0,0,18.6,49.28L17.28,50.6a4.9,4.9,0,0,0,0,6.94h0a4.91,4.91,0,0,0,7,0l3.68-3.68a28,28,0,0,0,13.65.07l3.61,3.61a4.91,4.91,0,0,0,6.95,0h0a4.9,4.9,0,0,0,0-6.94L51,49.45a20.26,20.26,0,0,0,6.34-8.08,3,3,0,0,0,1.19.26h0a2.89,2.89,0,0,0,2.89-2.9V31.06A2.89,2.89,0,0,0,58.5,28.16Z"/><circle class="cls-3" cx="50.95" cy="30.27" r="2.73"/></svg>