<svg width="134" height="134" viewBox="0 0 134 134" fill="none" xmlns="http://www.w3.org/2000/svg">
<rect x="0.5" y="0.5" width="133" height="133" rx="19.5" stroke="#558800"/>
<g clip-path="url(#clip0_308_398)">
<path d="M21.2965 107.956C21.6287 108.042 21.9816 107.995 22.2788 107.823C22.5759 107.651 22.7933 107.369 22.8839 107.038C25.5555 97.0699 36.4129 94.4865 42.9025 92.9407C44.5288 92.5542 45.8127 92.2481 46.6478 91.8876C54.04 88.6791 56.4496 83.5176 57.1707 79.7514C57.2136 79.5274 57.1966 79.296 57.1214 79.0806C57.0463 78.8651 56.9157 78.6734 56.7427 78.5246C52.8936 75.202 49.6462 70.2142 47.5972 64.4768C47.5394 64.3123 47.4484 64.1613 47.33 64.0333C44.6195 61.0868 43.0633 57.9717 43.0633 55.4895C43.0633 54.0396 43.6106 53.0669 44.8426 52.3329C45.0271 52.2226 45.1814 52.0681 45.2914 51.8834C45.4014 51.6987 45.4638 51.4895 45.4729 51.2747C46.0461 38.0621 55.4562 27.6612 66.9984 27.5937L67.2759 27.6119C78.8752 27.7727 88.2257 38.3967 88.5603 51.796C88.5649 51.9792 88.6085 52.1592 88.6881 52.3242C88.7677 52.4892 88.8815 52.6354 89.0219 52.7531C89.8338 53.4404 90.2125 54.3119 90.2125 55.4947C90.2125 57.5723 89.1049 60.1271 87.0974 62.6846C87.0017 62.8076 86.928 62.9462 86.8795 63.0944C84.8045 69.6721 81.0799 75.4795 76.6653 79.033C76.4824 79.1807 76.343 79.3751 76.2617 79.5957C76.1804 79.8162 76.1603 80.0547 76.2036 80.2858C76.9247 84.0493 79.3343 89.2082 86.7265 92.4219C87.6006 92.8006 88.9571 93.0963 90.6768 93.4672C97.1015 94.8574 107.853 97.1892 110.49 107.038C110.535 107.202 110.611 107.356 110.715 107.491C110.819 107.626 110.948 107.74 111.096 107.825C111.243 107.91 111.406 107.965 111.575 107.987C111.744 108.009 111.916 107.998 112.08 107.953C112.245 107.909 112.399 107.833 112.534 107.729C112.669 107.625 112.782 107.496 112.867 107.348C112.952 107.2 113.008 107.037 113.03 106.868C113.052 106.699 113.04 106.528 112.996 106.363C109.948 94.9845 97.7681 92.3467 91.2266 90.9305C89.7093 90.6011 88.3994 90.3184 87.7614 90.0383C82.937 87.9425 79.9646 84.7496 78.9141 80.5322C83.3935 76.6856 87.1415 70.7511 89.2839 64.0956C91.5586 61.1387 92.8088 58.0936 92.8088 55.4921C92.8088 53.7569 92.2486 52.3096 91.1384 51.1787C90.5211 36.6433 80.1487 25.1971 67.2759 25.0129L66.8895 25.0078C54.2501 25.0752 43.8336 36.2205 42.9232 50.5043C41.2995 51.6974 40.4747 53.3704 40.4747 55.4947C40.4747 58.5631 42.2099 62.2333 45.2472 65.5999C47.3456 71.3658 50.5981 76.4314 54.4706 79.9771C53.4253 84.2101 50.4503 87.4134 45.6155 89.5117C44.9904 89.7841 43.7454 90.0823 42.3033 90.4247C35.7126 91.9913 23.4493 94.9093 20.3783 106.369C20.2897 106.701 20.3366 107.055 20.5088 107.352C20.6809 107.65 20.9643 107.867 21.2965 107.956Z" fill="#558800"/>
</g>
<defs>
<clipPath id="clip0_308_398">
<rect width="93.375" height="83" fill="white" transform="translate(20 25)"/>
</clipPath>
</defs>
</svg>
