<svg width="52" height="53" viewBox="0 0 52 53" fill="none" xmlns="http://www.w3.org/2000/svg">
<rect y="0.5" width="52" height="52" rx="26" fill="#DADEE8"/>
<path d="M26.88 13.8575L26.84 13.9508L22.9733 22.9242H19.1733C18.2667 22.9242 17.4 23.1108 16.6133 23.4442L18.9467 17.8708L19 17.7375L19.0933 17.5242C19.12 17.4442 19.1467 17.3642 19.1867 17.2975C20.9333 13.2575 22.9067 12.3375 26.88 13.8575Z" fill="#88BB00" stroke="#16302B" stroke-width="1.5" stroke-linecap="round" stroke-linejoin="round"/>
<path d="M34.0667 23.1908C33.4667 23.0042 32.8267 22.9242 32.1867 22.9242H22.9733L26.84 13.9508L26.88 13.8575C27.08 13.9242 27.2667 14.0175 27.4667 14.0975L30.4133 15.3375C32.0533 16.0175 33.2 16.7242 33.8933 17.5775C34.0267 17.7375 34.1333 17.8842 34.2267 18.0575C34.3467 18.2442 34.44 18.4308 34.4933 18.6308C34.5467 18.7508 34.5867 18.8708 34.6133 18.9775C34.9733 20.0975 34.76 21.4708 34.0667 23.1908Z" fill="#88BB00" stroke="#16302B" stroke-width="1.5" stroke-linecap="round" stroke-linejoin="round"/>
<path d="M38.6956 29.4311V32.0311C38.6956 32.2978 38.6823 32.5645 38.6689 32.8311C38.4156 37.4845 35.8156 39.8311 30.8823 39.8311H20.4823C20.1623 39.8311 19.8423 39.8045 19.5356 39.7645C15.2956 39.4845 13.0289 37.2178 12.7489 32.9778C12.7089 32.6711 12.6823 32.3511 12.6823 32.0311V29.4311C12.6823 26.7511 14.3089 24.4445 16.6289 23.4445C17.4289 23.1111 18.2823 22.9245 19.1889 22.9245H32.2024C32.8556 22.9245 33.4956 23.0178 34.0823 23.1911C36.7356 24.0045 38.6956 26.4845 38.6956 29.4311Z" stroke="#16302B" stroke-width="1.5" stroke-linecap="round" stroke-linejoin="round"/>
<path d="M18.9467 17.8708L16.6133 23.4442C14.2933 24.4442 12.6667 26.7508 12.6667 29.4308V25.5242C12.6667 21.7375 15.36 18.5775 18.9467 17.8708Z" stroke="#16302B" stroke-width="1.5" stroke-linecap="round" stroke-linejoin="round"/>
<path d="M38.6915 25.5235V29.4302C38.6915 26.4969 36.7448 24.0035 34.0781 23.2035C34.7715 21.4702 34.9715 20.1102 34.6381 18.9769C34.6115 18.8569 34.5715 18.7369 34.5181 18.6302C36.9981 19.9102 38.6915 22.5369 38.6915 25.5235Z" stroke="#16302B" stroke-width="1.5" stroke-linecap="round" stroke-linejoin="round"/>
</svg>
