<svg width="24" height="25" viewBox="0 0 24 25" fill="none" xmlns="http://www.w3.org/2000/svg">
<path d="M12 15.92C13.6569 15.92 15 14.5769 15 12.92C15 11.2632 13.6569 9.92001 12 9.92001C10.3431 9.92001 9 11.2632 9 12.92C9 14.5769 10.3431 15.92 12 15.92Z" stroke="#F9F9F9" stroke-width="1.5" stroke-miterlimit="10" stroke-linecap="round" stroke-linejoin="round"/>
<path d="M2 13.8V12.04C2 11 2.85 10.14 3.9 10.14C5.71 10.14 6.45 8.86001 5.54 7.29001C5.02 6.39001 5.33 5.22001 6.24 4.70001L7.97 3.71001C8.76 3.24001 9.78 3.52001 10.25 4.31001L10.36 4.50001C11.26 6.07001 12.74 6.07001 13.65 4.50001L13.76 4.31001C14.23 3.52001 15.25 3.24001 16.04 3.71001L17.77 4.70001C18.68 5.22001 18.99 6.39001 18.47 7.29001C17.56 8.86001 18.3 10.14 20.11 10.14C21.15 10.14 22.01 10.99 22.01 12.04V13.8C22.01 14.84 21.16 15.7 20.11 15.7C18.3 15.7 17.56 16.98 18.47 18.55C18.99 19.46 18.68 20.62 17.77 21.14L16.04 22.13C15.25 22.6 14.23 22.32 13.76 21.53L13.65 21.34C12.75 19.77 11.27 19.77 10.36 21.34L10.25 21.53C9.78 22.32 8.76 22.6 7.97 22.13L6.24 21.14C5.33 20.62 5.02 19.45 5.54 18.55C6.45 16.98 5.71 15.7 3.9 15.7C2.85 15.7 2 14.84 2 13.8Z" stroke="#F9F9F9" stroke-width="1.5" stroke-miterlimit="10" stroke-linecap="round" stroke-linejoin="round"/>
</svg>
