<?xml version="1.0" encoding="utf-8"?>
<!-- Generator: Adobe Illustrator 19.1.0, SVG Export Plug-In . SVG Version: 6.00 Build 0)  -->
<svg version="1.1" id="Layer_1" xmlns="http://www.w3.org/2000/svg" xmlns:xlink="http://www.w3.org/1999/xlink" x="0px" y="0px"
	 viewBox="0 0 66 66" style="enable-background:new 0 0 66 66;" xml:space="preserve">
<style type="text/css">
	.st0{fill:none;stroke:#59595B;stroke-width:2;stroke-miterlimit:10;}
	.st1{fill:none;stroke:#59595B;stroke-width:2;stroke-linecap:round;stroke-miterlimit:10;}
	.st2{fill:#59595B;}
	.st3{fill:none;stroke:#82BC00;stroke-width:4.1813;stroke-linecap:round;stroke-miterlimit:10;}
	.st4{fill:#82BC00;}
	.st5{fill:none;stroke:#59595B;stroke-width:2;stroke-linecap:round;stroke-linejoin:round;stroke-miterlimit:10;}
	.st6{fill:none;stroke:#82BC00;stroke-width:2;stroke-linecap:round;stroke-linejoin:round;stroke-miterlimit:10;}
	
		.st7{fill-rule:evenodd;clip-rule:evenodd;fill:none;stroke:#59595B;stroke-width:2;stroke-linecap:round;stroke-linejoin:round;stroke-miterlimit:10;}
	.st8{fill:none;stroke:#82BC00;stroke-width:2;stroke-linecap:round;stroke-miterlimit:10;}
	.st9{fill:#81BD41;}
	.st10{fill:none;stroke:#59595B;stroke-width:2;stroke-linejoin:round;stroke-miterlimit:10;}
	.st11{fill:none;stroke:#82BC00;stroke-width:1.5;stroke-miterlimit:10;}
	.st12{fill:none;stroke:#59595B;stroke-width:3;stroke-linecap:round;stroke-miterlimit:10;}
	.st13{fill:none;stroke:#59595B;stroke-width:4;stroke-miterlimit:10;}
	.st14{fill:none;stroke:#82BC00;stroke-width:2.5;stroke-linecap:round;stroke-miterlimit:10;}
	.st15{fill:none;stroke:#82BC00;stroke-width:2;stroke-linejoin:round;stroke-miterlimit:10;}
	.st16{fill:#88BB00;}
	.st17{fill:none;stroke:#555555;stroke-width:2;stroke-miterlimit:10;}
	.st18{fill:none;stroke:#555555;stroke-width:2;stroke-linejoin:round;stroke-miterlimit:10;}
	.st19{fill:none;stroke:#88BB00;stroke-width:3.0586;stroke-linecap:round;stroke-miterlimit:10;}
	.st20{fill:none;stroke:#555555;stroke-width:2;stroke-linecap:round;stroke-linejoin:round;stroke-miterlimit:10;}
	.st21{fill:#555555;}
	.st22{fill:none;stroke:#88BB00;stroke-width:2;stroke-linecap:round;stroke-linejoin:round;stroke-miterlimit:10;}
	.st23{fill:none;stroke:#88BB00;stroke-width:2;stroke-miterlimit:10;}
	.st24{fill:none;stroke:#88BB00;stroke-width:1.5;stroke-miterlimit:10;}
	.st25{fill:none;stroke:#555555;stroke-width:2;stroke-linecap:round;stroke-miterlimit:10;}
	
		.st26{fill-rule:evenodd;clip-rule:evenodd;fill:none;stroke:#555555;stroke-width:2;stroke-linecap:round;stroke-linejoin:round;stroke-miterlimit:10;}
	.st27{fill:none;stroke:#88BB00;stroke-width:1.5912;stroke-linecap:round;stroke-miterlimit:10;}
	.st28{fill:none;stroke:#88BB00;stroke-width:2;stroke-linecap:round;stroke-miterlimit:10;}
	.st29{fill:none;stroke:#555555;stroke-width:2;}
	.st30{fill:none;stroke:#555555;stroke-width:2;stroke-linecap:round;}
	.st31{fill:none;stroke:#88BB00;stroke-width:2;stroke-linecap:round;}
	.st32{fill:#88BB00;stroke:#88BB00;stroke-width:0.25;stroke-miterlimit:10;}
	.st33{fill:none;stroke:#555555;stroke-width:2;stroke-linecap:round;stroke-linejoin:round;}
	.st34{fill:none;stroke:#88BB00;stroke-width:2;stroke-linecap:round;stroke-linejoin:round;}
	.st35{fill:none;stroke:#555555;stroke-width:5;stroke-linecap:round;stroke-linejoin:round;stroke-miterlimit:10;}
	.st36{fill:none;stroke:#555555;stroke-width:2;stroke-linejoin:round;}
	.st37{fill:none;stroke:#555555;stroke-width:1.5;stroke-miterlimit:10;}
	.st38{fill:none;stroke:#555555;stroke-width:5;stroke-miterlimit:10;}
	.st39{fill:none;stroke:#88BB00;stroke-width:1.5;stroke-linecap:round;stroke-miterlimit:10;}
	.st40{fill:none;stroke:#8BC53F;stroke-width:2;stroke-linecap:round;stroke-linejoin:round;stroke-miterlimit:10;}
	.st41{fill:none;stroke:#555555;stroke-width:1.5;stroke-linecap:round;stroke-miterlimit:10;}
	.st42{fill:none;stroke:#88BB00;stroke-width:1.8;stroke-linecap:round;stroke-miterlimit:10;}
	.st43{fill:none;stroke:#88BB00;stroke-width:1.6893;stroke-linecap:round;stroke-linejoin:round;stroke-miterlimit:10;}
	.st44{fill:none;stroke:#6D6E70;stroke-width:2;stroke-linecap:round;stroke-miterlimit:10;}
	.st45{fill:none;stroke:#6D6E70;stroke-width:2;stroke-linecap:round;stroke-linejoin:round;stroke-miterlimit:10;}
	.st46{fill:none;stroke:#88BB00;stroke-width:1.5;stroke-linecap:round;stroke-linejoin:round;stroke-miterlimit:10;}
	.st47{fill-rule:evenodd;clip-rule:evenodd;fill:none;stroke:#555555;stroke-width:2;stroke-linejoin:round;stroke-miterlimit:10;}
	.st48{fill:none;stroke:#82BC00;stroke-width:3.5;stroke-linecap:round;stroke-miterlimit:10;}
</style>
<g>
	<path class="st20" d="M12.2,8.7c0,3.7,3.1,4.8,6.8,4.8h35.7v45.3c0,1.1-0.9,1.9-1.9,1.9H18c-3.7,0-6.8-3.1-6.8-6.8V12.1
		c0-3.7,3.1-6.8,6.8-6.8h34.8"/>
	<g>
		<path class="st32" d="M23.9,29.6c0-0.4,0.4-0.8,0.8-0.8H30c1.7,0,3.1,0.5,4,1.4c0.7,0.7,1.1,1.7,1.1,2.8v0c0,2.3-1.6,3.6-3.7,4.1
			l3.5,4.5c0.2,0.2,0.3,0.4,0.3,0.6c0,0.4-0.4,0.8-0.8,0.8c-0.3,0-0.6-0.2-0.7-0.4l-3.9-5.1h-4v4.7c0,0.4-0.4,0.8-0.8,0.8
			c-0.4,0-0.8-0.4-0.8-0.8V29.6z M29.8,35.9c2.1,0,3.6-1.1,3.6-2.9v0c0-1.7-1.3-2.8-3.6-2.8h-4.3v5.7H29.8z"/>
		<path class="st32" d="M38.1,33.1c0-0.4,0.3-0.8,0.8-0.8c0.4,0,0.8,0.3,0.8,0.8v1.9c0.8-1.7,2.3-2.8,3.6-2.8c0.5,0,0.8,0.3,0.8,0.8
			c0,0.4-0.3,0.7-0.7,0.8c-2,0.2-3.6,1.7-3.6,4.7v3.5c0,0.4-0.3,0.8-0.8,0.8c-0.4,0-0.8-0.3-0.8-0.8V33.1z"/>
	</g>
</g>
</svg>
