<svg id="Layer_1" data-name="Layer 1" xmlns="http://www.w3.org/2000/svg" viewBox="0 0 66 66"><defs><style>.cls-1{fill:#8b0;}.cls-2{fill:none;stroke-miterlimit:10;}.cls-2,.cls-4{stroke:#59595b;stroke-linecap:round;stroke-width:2px;}.cls-3{fill:#59595b;}.cls-4{fill:#fff;stroke-linejoin:round;}</style></defs><title>icon-log-in</title><rect class="cls-1" x="17.44" y="23.13" width="30.88" height="12.5" rx="1.23" ry="1.23"/><path class="cls-2" d="M42.62,53.45h-39a1.82,1.82,0,0,1-1.81-1.81V7.14A1.82,1.82,0,0,1,3.59,5.32H62.18A1.82,1.82,0,0,1,64,7.14V32.67"/><line class="cls-2" x1="15.32" y1="60.68" x2="51.45" y2="60.68"/><rect class="cls-3" x="30.62" y="53.45" width="5.53" height="7.23"/><path class="cls-4" d="M61.26,53.67a.61.61,0,0,1-.4,0l-.14-.17-.06,0-7.11-7.13L49.41,54.2,41.93,31.92l-.08-.25h0l22.37,7.63L56.5,43.39l7.35,7.35a.9.9,0,0,1,0,.34Z"/></svg>