<?xml version="1.0" encoding="UTF-8"?>
<svg width="63px" height="44px" viewBox="0 0 63 44" version="1.1" xmlns="http://www.w3.org/2000/svg" xmlns:xlink="http://www.w3.org/1999/xlink">
    <!-- Generator: Sketch 62 (91390) - https://sketch.com -->
    <title>Managing-My-Wealth-Icon</title>
    <desc>Created with Sketch.</desc>
    <g id="Welcome" stroke="none" stroke-width="1" fill="none" fill-rule="evenodd">
        <g id="Icon-2-Copy" transform="translate(-8.000000, -18.000000)">
            <g id="Managing-My-Wealth-Icon" transform="translate(9.000000, 19.000000)">
                <path d="M54.9,29.6 L58.7,29.6 C59.8,29.6 60.7,28.7 60.7,27.6 L60.7,2 C60.7,0.9 59.8,1.81188398e-13 58.7,1.81188398e-13 L13.3,1.81188398e-13 C12.2,1.81188398e-13 11.3,0.9 11.3,2 L11.3,6.1" id="Shape" stroke="#59595B" stroke-width="2" stroke-linejoin="round"></path>
                <path d="M49.1,35.7 L53,35.7 C54.1,35.7 55,34.8 55,33.7 L55,8.1 C55,7 54.1,6.1 53,6.1 L7.6,6.1 C6.5,6.1 5.6,7 5.6,8.1 L5.6,12.1" id="Shape" stroke="#59595B" stroke-width="2" stroke-linejoin="round"></path>
                <path d="M49.3,39.8 L49.3,14.2 C49.3,13.1 48.4,12.2 47.3,12.2 L2,12.2 C0.9,12.2 9.23705556e-14,13.1 9.23705556e-14,14.2 L9.23705556e-14,39.8 C9.23705556e-14,40.9 0.9,41.8 2,41.8 L47.3,41.8 C48.4,41.8 49.3,40.9 49.3,39.8 Z" id="Shape" stroke="#59595B" stroke-width="2" stroke-linejoin="round"></path>
                <path d="M40.2,20.7 C40.5,20.7 40.8,21 40.8,21.3 L40.8,21.9 C42.1,22 43,22.5 44,23.1 C44.2,23.3 44.4,23.4 44.4,23.7 C44.4,24.1 44.1,24.4 43.7,24.4 C43.6,24.4 43.4,24.4 43.3,24.3 C42.5,23.7 41.6,23.3 40.8,23.2 L40.8,27.9 C43.7,28.5 44.9,29.7 44.9,31.6 C44.9,33.6 43.2,35 40.9,35.2 L40.9,36.5 C40.9,36.8 40.6,37.1 40.3,37.1 C40,37.1 39.7,36.8 39.7,36.5 L39.7,35.1 C38.1,35 36.8,34.4 35.6,33.4 C35.4,33.2 35.3,33.1 35.3,32.8 C35.3,32.4 35.6,32.1 36,32.1 C36.2,32.1 36.3,32.2 36.4,32.3 C37.4,33.2 38.4,33.7 39.8,33.9 L39.8,29.1 C37,28.4 35.8,27.4 35.8,25.4 C35.8,23.4 37.5,22 39.8,21.9 L39.8,21.3 C39.5,21 39.8,20.7 40.2,20.7 Z M39.6,27.6 L39.6,23.1 C38,23.2 37,24.1 37,25.2 C37,26.4 37.5,27.1 39.6,27.6 Z M40.7,29.4 L40.7,33.9 C42.3,33.8 43.3,32.9 43.3,31.7 C43.3,30.6 42.8,29.9 40.7,29.4 Z" id="Shape" fill="#88BB00" fill-rule="nonzero"></path>
            </g>
        </g>
    </g>
</svg>